<?xml version="1.0" standalone="no"?>
<!DOCTYPE svg PUBLIC "-//W3C//DTD SVG 20010904//EN"
 "http://www.w3.org/TR/2001/REC-SVG-20010904/DTD/svg10.dtd">
<svg version="1.0" xmlns="http://www.w3.org/2000/svg"
 width="700.000000pt" height="700.000000pt" viewBox="0 0 700.000000 700.000000"
 preserveAspectRatio="xMidYMid meet">
<metadata>
Created by potrace 1.11, written by Peter Selinger 2001-2013
</metadata>
<g transform="translate(0.000000,700.000000) scale(0.100000,-0.100000)"
fill="#000000" stroke="none">
<path d="M3298 6995 c-2 -1 -43 -6 -92 -9 -50 -4 -92 -8 -94 -10 -2 -2 20 -55
48 -117 29 -63 62 -136 75 -164 12 -27 61 -133 108 -235 46 -102 144 -315 217
-475 73 -159 150 -327 171 -373 21 -46 39 -85 39 -87 0 -2 21 -47 46 -102 25
-54 104 -224 174 -378 70 -154 139 -305 153 -335 14 -30 75 -163 135 -295 60
-132 121 -265 135 -295 14 -30 59 -129 100 -220 41 -91 89 -196 107 -235 133
-288 200 -438 200 -446 0 -12 11 -11 67 3 l46 11 -7 87 c-3 47 -8 95 -10 106
-2 10 -7 59 -11 108 -4 49 -8 96 -10 105 -1 9 -6 59 -10 111 -4 52 -8 102 -10
110 -2 8 -6 51 -10 95 -3 44 -8 91 -10 105 -2 14 -7 61 -10 105 -9 111 -14
161 -20 225 -11 97 -14 134 -20 205 -4 39 -8 84 -10 100 -2 17 -7 62 -10 100
-3 39 -8 88 -10 110 -2 22 -7 72 -10 110 -4 39 -8 84 -10 100 -2 17 -7 62 -10
100 -3 39 -8 88 -10 110 -3 22 -7 67 -10 100 -9 115 -17 190 -20 215 -2 14 -7
61 -10 105 -3 44 -8 96 -10 115 -3 19 -7 62 -10 95 -3 33 -8 83 -11 110 -2 28
-6 70 -9 95 -3 25 -7 77 -10 115 -3 39 -7 88 -10 110 -2 22 -7 67 -10 100 -3
33 -8 78 -10 100 -2 22 -7 72 -10 110 -7 72 -14 128 -19 132 -17 17 -440 119
-541 130 -27 3 -53 7 -56 8 -3 2 -35 7 -71 10 -35 4 -78 8 -94 11 -33 5 -521
14 -526 9z"/>
<path d="M1558 6411 c-247 -167 -521 -408 -689 -606 -19 -22 -42 -49 -53 -60
-63 -69 -284 -381 -275 -389 2 -1 27 -18 54 -36 28 -19 55 -38 60 -43 6 -4
143 -103 305 -218 162 -115 327 -232 365 -260 173 -124 903 -643 932 -663 18
-11 117 -82 220 -155 103 -74 352 -252 553 -394 201 -143 383 -273 405 -289
42 -31 307 -219 339 -240 10 -7 49 -35 87 -63 120 -87 287 -205 292 -205 3 0
22 15 42 34 l38 33 -54 79 c-29 43 -56 81 -59 84 -5 4 -304 424 -396 556 -16
23 -110 156 -210 295 -100 140 -194 273 -210 295 -16 23 -117 164 -224 314
-107 150 -208 291 -224 314 -16 22 -149 210 -295 416 -147 206 -280 394 -297
417 -16 23 -72 101 -124 175 -52 73 -108 152 -125 175 -264 373 -352 493 -360
492 -5 0 -49 -26 -97 -58z"/>
<path d="M5889 6024 c-1 -16 -2 -40 -3 -54 -2 -14 -6 -61 -10 -105 -5 -44 -9
-93 -11 -110 -2 -16 -6 -59 -10 -95 -3 -36 -8 -81 -10 -100 -2 -19 -7 -69 -10
-110 -7 -78 -11 -120 -20 -205 -2 -27 -7 -75 -10 -105 -2 -30 -7 -80 -10 -111
-3 -30 -7 -78 -10 -105 -2 -27 -6 -74 -10 -104 -13 -124 -15 -147 -19 -200
-14 -161 -17 -198 -21 -230 -2 -19 -7 -64 -10 -100 -3 -36 -8 -87 -11 -115 -3
-27 -7 -75 -10 -105 -2 -30 -6 -71 -8 -90 -3 -19 -8 -63 -11 -97 -3 -35 -7
-91 -10 -125 -3 -35 -8 -79 -10 -98 -3 -19 -7 -64 -10 -100 -14 -158 -16 -176
-29 -301 -3 -24 1 -27 47 -38 28 -6 54 -8 57 -4 4 5 29 55 55 113 26 58 62
137 80 175 34 74 35 76 155 340 43 94 92 200 109 238 55 120 104 227 161 352
12 28 87 191 166 364 96 209 142 321 138 334 -26 82 -306 500 -419 623 -126
140 -199 217 -237 253 l-48 44 -1 -29z"/>
<path d="M29 3916 c-28 -38 -32 -679 -4 -824 1 -9 6 -42 9 -73 4 -31 9 -67 11
-80 3 -13 7 -39 10 -58 2 -18 7 -41 9 -50 3 -9 8 -30 11 -47 10 -64 73 -303
87 -331 7 -15 20 -28 28 -29 19 -1 178 -15 210 -19 14 -2 59 -6 100 -10 41 -3
91 -8 110 -11 19 -2 69 -6 110 -9 41 -3 91 -8 110 -10 19 -2 53 -6 75 -9 22
-3 76 -8 120 -11 44 -3 91 -8 105 -10 14 -2 59 -6 100 -10 41 -3 89 -7 105
-10 17 -2 64 -6 105 -10 98 -8 164 -14 220 -20 25 -3 70 -7 100 -10 30 -3 75
-7 100 -9 25 -3 74 -8 110 -11 66 -6 129 -12 210 -20 25 -2 72 -7 105 -10 33
-3 83 -7 110 -10 118 -12 153 -15 210 -20 148 -13 190 -17 315 -30 120 -12
147 -15 205 -20 135 -11 191 -17 215 -20 14 -2 61 -7 105 -10 44 -4 93 -8 109
-10 43 -6 189 -19 210 -19 19 0 22 5 39 75 7 25 2 28 -121 84 -70 32 -163 75
-207 96 -44 20 -102 47 -130 59 -56 25 -275 126 -375 172 -36 17 -103 47 -150
68 -47 21 -121 54 -165 75 -81 38 -137 64 -530 242 -121 56 -260 119 -308 142
-49 22 -90 41 -92 41 -2 0 -56 25 -120 55 -63 30 -117 55 -119 55 -2 0 -42 17
-88 39 -45 21 -135 62 -198 91 -63 29 -143 65 -177 81 -35 16 -91 42 -125 58
-35 16 -115 52 -178 81 -63 29 -142 65 -175 80 -64 30 -249 114 -355 162 -36
16 -86 40 -112 52 -27 13 -48 23 -49 22z"/>
<path d="M6690 3372 c-162 -228 -310 -436 -329 -463 l-34 -48 37 -37 c20 -20
42 -34 49 -31 10 5 272 190 505 359 83 60 74 21 76 333 1 110 -1 223 -4 251
l-5 50 -295 -414z"/>
<path d="M3687 1384 c-1 -1 -38 -5 -82 -9 -44 -4 -97 -9 -118 -11 -21 -2 -68
-6 -105 -9 -37 -3 -83 -8 -102 -10 -19 -2 -69 -7 -110 -11 -41 -3 -86 -8 -100
-9 -14 -1 -61 -6 -105 -10 -44 -3 -91 -8 -105 -10 -14 -2 -61 -7 -105 -11 -44
-3 -91 -8 -105 -9 -14 -1 -63 -6 -110 -10 -47 -4 -92 -9 -101 -10 -8 -2 -51
-6 -95 -10 -43 -4 -92 -8 -109 -10 -16 -1 -66 -6 -110 -10 -44 -3 -91 -8 -105
-10 -23 -4 -119 -12 -215 -20 -22 -2 -71 -7 -110 -11 -106 -10 -114 -11 -195
-18 -41 -4 -86 -9 -100 -11 -14 -2 -61 -7 -105 -10 -44 -4 -96 -8 -115 -10
-19 -2 -70 -7 -114 -11 -144 -12 -143 -5 -19 -125 178 -175 324 -295 503 -414
25 -16 47 -32 50 -35 3 -3 17 -12 32 -20 14 -8 74 -43 133 -77 l107 -61 61 28
c34 15 92 42 130 59 95 44 161 74 417 191 124 57 267 122 318 146 52 24 96 44
98 44 2 0 52 23 110 50 58 28 107 50 109 50 1 0 45 20 96 44 52 24 207 94 344
157 138 62 251 113 252 114 2 1 -3 25 -10 54 l-12 52 -48 -2 c-26 -2 -48 -4
-50 -5z"/>
<path d="M3990 573 c-91 -65 -304 -217 -475 -338 l-309 -220 49 -6 c68 -7 526
-3 547 6 9 3 18 12 21 18 3 9 200 290 303 432 8 11 35 49 60 84 l46 64 -39 39
-39 38 -164 -117z"/>
</g>
</svg>
