<svg viewBox="0 0 100 59" xmlns="http://www.w3.org/2000/svg" fill-rule="evenodd" clip-rule="evenodd" stroke-linejoin="round" stroke-miterlimit="1.414"><g fill="#6c757d"><path d="M17.48 38.133l5.197-3.698c.134.144.273.283.417.418l-2.333 3.277a19.394 19.394 0 0 1-3.281.003zm8.928-1.381l-.071.029.02-.045.051.016zm-21.314-4.67l15.546-1.48c.044.192.095.382.153.57l-10.582 4.836a19.218 19.218 0 0 1-5.117-3.926zM.135 16.823l20.658 9.441a7.978 7.978 0 0 0-.153.57L.916 24.956A19.046 19.046 0 0 1 0 19.101c0-.771.046-1.531.135-2.278zM9.054 2.856l14.04 19.728a8.2 8.2 0 0 0-.417.417L2.938 8.954l-.108.143a19.222 19.222 0 0 1 6.224-6.241zm29.082 14.658a19.36 19.36 0 0 1-.004 3.219l-3.187 2.268a8.2 8.2 0 0 0-.417-.417l3.608-5.07zM16.952.12C17.657.041 18.374 0 19.101 0c2.081 0 4.084.333 5.96.95l1.866 19.597a7.978 7.978 0 0 0-.57.153L16.952.12zm15.207 5.046a19.182 19.182 0 0 1 3.876 5.097L31.265 20.7a7.978 7.978 0 0 0-.57-.153l1.464-15.381z"/><path d="M24.586 47.139c0-1.642.353-3.045 1.06-4.208h.308a4.366 4.366 0 0 0-.034.547c0 1.574.564 2.948 1.693 4.123 1.129 1.174 2.674 1.761 4.636 1.761 1.528 0 2.719-.365 3.574-1.094.856-.73 1.283-1.654 1.283-2.771a2.76 2.76 0 0 0-.633-1.779c-.422-.525-1.123-1.106-2.103-1.745l-5.953-3.934c-2.212-1.482-3.318-3.307-3.318-5.473 0-.228.023-.456.068-.684.137-1.802.838-3.25 2.104-4.345 1.266-1.095 2.959-1.642 5.08-1.642 1.255 0 2.805.114 4.653.342h2.155l-.445 5.029h-.342c0-1.186-.439-2.138-1.317-2.857-.878-.718-2.047-1.077-3.507-1.077-1.778 0-3.067.547-3.865 1.642-.411.524-.616 1.049-.616 1.573 0 .525.103.97.308 1.335.319.592 1.015 1.231 2.087 1.915l6.534 4.242c2.052 1.346 3.078 3.102 3.078 5.268 0 2.418-.826 4.271-2.48 5.559-1.653 1.289-3.848 1.933-6.585 1.933-1.551 0-2.982-.188-4.293-.564-1.311-.377-2.275-.884-2.891-1.523-.159-.433-.239-.957-.239-1.573zm50.458 2.839h.547v.342H65.329v-.308h.513a1.42 1.42 0 0 0 .992-.479c.274-.296.388-.627.342-.992l-1.334-12.418-6.431 11.084c-.844 1.414-1.278 2.68-1.3 3.797h-.343l-8.791-14.778-1.334 12.315c-.046.365.068.702.342 1.009.273.308.604.462.992.462h.513v.308h-7.15v-.342h.548c.638 0 1.191-.194 1.659-.581.467-.388.747-.913.838-1.574l2.839-21.928h.308l10.605 17.447 10.194-17.447h.308l2.908 21.928c.114.661.405 1.186.872 1.574a2.474 2.474 0 0 0 1.625.581zm15.565.787c-4.401 0-7.857-1.106-10.365-3.318-2.509-2.213-3.763-5.246-3.763-9.1 0-3.854 1.243-6.893 3.729-9.117 2.485-2.223 5.895-3.335 10.228-3.335 3.307 0 6.146.616 8.518 1.847l.069 5.884h-.274c-1.163-4.196-3.82-6.294-7.971-6.294-2.691 0-4.818.975-6.38 2.925-1.562 1.95-2.343 4.612-2.343 7.987 0 3.376.747 6.055 2.241 8.04 1.493 1.984 3.517 3.01 6.072 3.078 2.645 0 4.664-.661 6.055-1.984 1.414-1.368 2.394-3.717 2.942-7.047h.273l.342 5.884c-1.847 3.056-4.971 4.573-9.373 4.55zm-66.002 7.341a2.286 2.286 0 0 1-.021-.387c0-.191.036-.394.107-.609h.065a1.67 1.67 0 0 0-.007.158c0 .291.088.533.265.727.176.193.41.29.702.29.301 0 .548-.091.741-.272a.898.898 0 0 0 .29-.684.87.87 0 0 0-.279-.67l-1.376-1.275a1.138 1.138 0 0 1-.386-.867c0-.339.113-.63.34-.871.227-.241.534-.362.92-.362.182 0 .387.024.617.072h.279v.881h-.065a.674.674 0 0 0-.232-.537.886.886 0 0 0-.599-.201.84.84 0 0 0-.859.853c0 .243.095.454.286.63l1.412 1.304c.238.22.358.521.358.903s-.122.696-.366.942c-.243.246-.568.369-.974.369-.21 0-.433-.032-.67-.097a1.166 1.166 0 0 1-.548-.297zm3.461.222a.409.409 0 0 0 .29-.111.38.38 0 0 0 .125-.269v-3.403a.341.341 0 0 0-.122-.265.43.43 0 0 0-.293-.107h-.101v-.072h2.092c.196 0 .368-.014.516-.043.148-.028.244-.052.287-.071v.816l-.079-.007v-.107a.366.366 0 0 0-.1-.258.337.337 0 0 0-.258-.108h-1.491v1.82h1.226c.095 0 .168-.029.218-.086a.315.315 0 0 0 .075-.215v-.093h.079v1.003h-.079v-.093c0-.134-.05-.225-.15-.272a.483.483 0 0 0-.122-.029h-1.247v1.82h1.125c.22 0 .405-.039.555-.115a.951.951 0 0 0 .344-.272c.079-.105.159-.244.24-.416h.072l-.394 1.025h-2.909v-.072h.101zm4.979-4.041a2.59 2.59 0 0 1 1.214-.286c.442 0 .847.094 1.214.283.368.188.661.455.878.799.217.344.326.733.326 1.167 0 .435-.109.824-.326 1.168-.217.344-.51.61-.878.799a2.446 2.446 0 0 1-1.132.283c-.386 0-.728-.055-1.024-.165a2.361 2.361 0 0 1-.77-.458 2.119 2.119 0 0 1-.516-.717 2.395 2.395 0 0 1-.19-.992c0-.38.109-.741.326-1.085.217-.344.51-.609.878-.796zm-.136 3.432c.363.377.812.566 1.346.566.535 0 .984-.19 1.347-.569.363-.38.545-.869.545-1.466s-.182-1.085-.545-1.465a1.791 1.791 0 0 0-1.347-.569c-.534 0-.982.19-1.343.569-.36.38-.541.868-.541 1.465 0 .597.179 1.087.538 1.469zm8.812-3.546h-.108a.332.332 0 0 0-.294.15.322.322 0 0 0-.05.151v2.414c0 .497-.159.89-.476 1.179-.318.289-.754.433-1.308.433s-.991-.143-1.311-.43c-.32-.286-.48-.678-.48-1.175v-2.414a.283.283 0 0 0-.1-.219.356.356 0 0 0-.244-.089h-.107v-.072h1.361v.072h-.107a.356.356 0 0 0-.244.089.283.283 0 0 0-.1.219v2.328c0 .464.118.829.354 1.096.237.268.571.402 1.003.402.433 0 .779-.127 1.039-.38.261-.253.391-.6.391-1.039v-2.407a.308.308 0 0 0-.104-.222.347.347 0 0 0-.24-.086h-.108v-.072h1.233v.072zm.745 4.155a.409.409 0 0 0 .29-.111.38.38 0 0 0 .125-.269V54.56a.387.387 0 0 0-.132-.273.429.429 0 0 0-.298-.114h-.086v-.072h1.483v.072h-.086a.428.428 0 0 0-.297.114.361.361 0 0 0-.125.273v3.618h1.117c.22 0 .406-.039.559-.115a.959.959 0 0 0 .348-.272c.078-.105.156-.244.233-.416h.071l-.394 1.025h-2.909v-.072h.101zm11.584 0h.115v.072h-1.555v-.065h.108a.27.27 0 0 0 .208-.096.26.26 0 0 0 .071-.212l-.322-3.603-1.505 3.345c-.133.292-.215.535-.243.731h-.072l-1.834-3.976-.308 3.503a.257.257 0 0 0 .072.212.26.26 0 0 0 .2.096h.115v.065h-1.39v-.072h.115a.529.529 0 0 0 .347-.122.503.503 0 0 0 .176-.329l.537-4.593h.072l1.998 4.32 1.956-4.32h.065l.551 4.593c.024.191.12.324.287.401.072.033.15.05.236.05zm4.951 0h.057v.072h-1.469v-.072h.058c.091 0 .16-.031.208-.093a.298.298 0 0 0 .071-.176.47.47 0 0 0-.028-.161l-.394-.953h-1.813l-.394.932a.485.485 0 0 0-.036.175c0 .055.024.115.072.179.048.065.119.097.215.097h.057v.072h-1.368v-.072h.057c.1 0 .202-.035.304-.104a.764.764 0 0 0 .255-.311 368.318 368.318 0 0 0 1.633-3.511c.081-.201.124-.334.129-.401h.065l1.769 3.912c.139.277.323.415.552.415zm-3.217-1.598h1.634l-.803-1.963-.831 1.963zm4.972-2.407h-.38v3.618c.005.148.072.26.201.337.062.033.131.05.208.05h.093l.007.072h-1.469v-.072h.101a.4.4 0 0 0 .283-.111.359.359 0 0 0 .118-.269v-3.403a.347.347 0 0 0-.118-.265.409.409 0 0 0-.283-.107h-.101v-.072h1.799c.449 0 .803.103 1.063.308a.98.98 0 0 1 .391.81c0 .334-.105.614-.315.838a1.24 1.24 0 0 1-.803.387c.153.067.337.253.552.559a18.69 18.69 0 0 0 .655.806c.103.117.188.206.255.268.177.167.38.251.609.251v.072h-.222c-.378 0-.674-.074-.889-.222a2.106 2.106 0 0 1-.444-.409 43.586 43.586 0 0 1-.362-.505 88.043 88.043 0 0 0-.34-.476c-.258-.32-.499-.48-.724-.48v-.072c.559 0 .896-.029 1.011-.086.157-.081.265-.167.322-.258.119-.191.179-.401.179-.63 0-.292-.086-.516-.258-.674-.172-.157-.403-.243-.695-.258a14.236 14.236 0 0 0-.444-.007zm3.253 4.005a.517.517 0 0 0 .336-.115.339.339 0 0 0 .144-.272V54.56a.342.342 0 0 0-.144-.273.534.534 0 0 0-.344-.114h-.093v-.072h1.619v.072h-.093a.533.533 0 0 0-.333.107.37.37 0 0 0-.154.265v3.403a.353.353 0 0 0 .151.269.53.53 0 0 0 .336.111h.093l.008.072H63.91v-.072h.101zm6.641 0h.057v.072h-1.468v-.072h.057c.091 0 .16-.031.208-.093a.298.298 0 0 0 .071-.176.47.47 0 0 0-.028-.161l-.394-.953h-1.813l-.394.932a.485.485 0 0 0-.036.175c0 .055.024.115.072.179.048.065.119.097.215.097h.057v.072h-1.368v-.072h.057c.1 0 .202-.035.304-.104a.764.764 0 0 0 .255-.311 368.318 368.318 0 0 0 1.633-3.511c.081-.201.124-.334.129-.401h.065l1.769 3.912c.139.277.323.415.552.415zm-3.217-1.598h1.634l-.803-1.963-.831 1.963zm8.017 1.77c-.755-.005-1.37-.246-1.845-.724-.475-.477-.713-1.106-.713-1.887 0-.781.238-1.411.713-1.888.475-.478 1.105-.717 1.888-.717.64 0 1.206.163 1.698.488l.143 1.01h-.064a1.593 1.593 0 0 0-.638-.95c-.32-.222-.7-.333-1.139-.333-.626 0-1.126.218-1.501.652-.375.435-.562 1.01-.562 1.727 0 .716.185 1.293.555 1.73.37.437.858.663 1.465.677.535 0 .981-.146 1.34-.437.387-.315.621-.829.702-1.54h.057l-.086 1.125c-.434.711-1.106 1.067-2.013 1.067zm2.952-.172a.409.409 0 0 0 .29-.111.38.38 0 0 0 .125-.269v-3.403a.338.338 0 0 0-.122-.265.43.43 0 0 0-.293-.107h-.101v-.072h2.092c.196 0 .368-.014.516-.043.148-.028.244-.052.287-.071v.816l-.079-.007v-.107a.366.366 0 0 0-.1-.258.337.337 0 0 0-.258-.108h-1.49v1.82h1.225c.095 0 .168-.029.218-.086a.315.315 0 0 0 .075-.215v-.093h.079v1.003h-.079v-.093c0-.134-.05-.225-.15-.272a.483.483 0 0 0-.122-.029h-1.246v1.82h1.124c.22 0 .405-.039.556-.115a.956.956 0 0 0 .343-.272c.079-.105.159-.244.24-.416h.072l-.394 1.025h-2.909v-.072h.101zm8.625-4.155a.39.39 0 0 0-.272.104.356.356 0 0 0-.122.254v3.052c0 .277.017.54.051.788l.014.129h-.065l-3.725-3.532v2.988c0 .105.038.193.115.265a.394.394 0 0 0 .279.107h.122v.072h-1.354v-.072h.122a.396.396 0 0 0 .279-.107.351.351 0 0 0 .115-.265v-3.067c0-.291-.017-.551-.051-.781l-.014-.114.079.007 3.718 3.503v-2.973a.376.376 0 0 0-.129-.254.387.387 0 0 0-.272-.104h-.122v-.072h1.354v.072h-.122zm2.68.136v3.639a.365.365 0 0 0 .215.33c.062.033.131.05.208.05h.078v.072h-1.475v-.072h.085a.41.41 0 0 0 .294-.115.388.388 0 0 0 .129-.272v-3.632h-1.297a.336.336 0 0 0-.261.107.371.371 0 0 0-.097.258v.115h-.079v-.81c.096.039.231.067.405.086.175.019.305.029.391.029h2.335c.344 0 .612-.038.803-.115v.81h-.079v-.115a.37.37 0 0 0-.1-.258.34.34 0 0 0-.258-.107h-1.297zm2.328 4.019a.406.406 0 0 0 .416-.38v-3.403a.341.341 0 0 0-.122-.265.431.431 0 0 0-.294-.107h-.1v-.072h2.092c.196 0 .368-.014.516-.043.148-.028.243-.052.286-.071v.816l-.079-.007v-.107a.362.362 0 0 0-.1-.258.337.337 0 0 0-.258-.108h-1.49v1.82h1.225c.096 0 .169-.029.219-.086a.315.315 0 0 0 .075-.215v-.093h.079v1.003h-.079v-.093c0-.134-.05-.225-.151-.272a.476.476 0 0 0-.121-.029h-1.247v1.82h1.125c.22 0 .405-.039.555-.115a.96.96 0 0 0 .344-.272c.079-.105.159-.244.24-.416h.072l-.394 1.025h-2.909v-.072h.1zm5.08-4.005h-.38v3.618c.005.148.072.26.201.337.062.033.131.05.207.05h.093l.008.072h-1.469v-.072h.1a.4.4 0 0 0 .283-.111.355.355 0 0 0 .118-.269v-3.403a.344.344 0 0 0-.118-.265.409.409 0 0 0-.283-.107h-.1v-.072h1.798c.449 0 .804.103 1.064.308.26.206.391.475.391.81 0 .334-.106.614-.316.838-.21.224-.477.353-.802.387.153.067.337.253.552.559-.005 0 .077.105.247.315.169.21.305.374.408.491.103.117.188.206.254.268.177.167.38.251.609.251v.072h-.222c-.377 0-.673-.074-.888-.222a2.082 2.082 0 0 1-.444-.409 43.586 43.586 0 0 1-.362-.505l-.34-.476c-.258-.32-.499-.48-.724-.48v-.072c.559 0 .896-.029 1.01-.086.158-.081.265-.167.323-.258.119-.191.179-.401.179-.63 0-.292-.086-.516-.258-.674-.172-.157-.404-.243-.695-.258a14.236 14.236 0 0 0-.444-.007z" fill-rule="nonzero"/><path d="M55.696 2.808c.55-.49 1.178-.738 1.898-.601l.262.077-.053-.111c-.253-.706-.003-1.42.983-2.092L58.904 0l.118.081c1.002.682 1.177 1.403.893 2.103l-.05.095.247-.072c.848-.161 1.568.212 2.184.885l.327.358h-.482c-1.402-.002-1.779.414-1.934.953l-.106.555.009.572a6.665 6.665 0 0 1 3.508 1.802 6.743 6.743 0 0 1 1.928 3.606l.002.011h-.002v.001l.683-.012.546-.106c.203-.059.39-.151.543-.32.048-.061.094-.124.138-.19.17-.292.273-.739.272-1.441v-.487l.354.33c.669.621 1.038 1.347.878 2.202l-.071.249.095-.05c.694-.287 1.409-.11 2.086.9l.08.119-.08.119c-.667.994-1.375 1.247-2.076.991l-.109-.053.075.264c.16.855-.209 1.581-.878 2.202l-.354.33v-.487a4.56 4.56 0 0 0-.071-.877c-.134-.402-.334-.801-.906-1.078l-.52-.102h-.685v.007h-.001a6.749 6.749 0 0 1-1.769 3.438 6.656 6.656 0 0 1-3.478 1.925l.003 9.875.105.548c.153.538.531.964 1.935.962h.483l-.327.357a4.546 4.546 0 0 1-.249.251c-.559.512-1.199.774-1.935.634l-.247-.072.049.096c.285.7.109 1.42-.892 2.103l-.118.081-.119-.081c-.986-.672-1.236-1.386-.982-2.093l.053-.11-.263.076c-.848.162-1.568-.211-2.184-.885l-.327-.357h.483c1.402.002 1.779-.414 1.933-.954l.106-.552v-9.841a6.659 6.659 0 0 1-3.518-1.803 6.746 6.746 0 0 1-1.928-3.608l-.682.003-.472.092c-.679.32-.844.81-.985 1.276a4.94 4.94 0 0 0-.042.689l.001.487-.355-.33c-.668-.621-1.038-1.347-.878-2.202l.076-.264-.11.053c-.7.256-1.409.003-2.075-.991l-.08-.119.08-.119c.677-1.01 1.391-1.187 2.086-.9l.095.05-.072-.249c-.16-.855.21-1.581.878-2.202l.355-.33-.001.487c0 .547.061.939.167 1.223.111.196.237.376.38.536.12.09.255.148.399.19l.552.108h.813v-.001h-.13a6.747 6.747 0 0 1 1.77-3.446 6.666 6.666 0 0 1 3.479-1.925l.001.14h.001l-.004-.746-.106-.549c-.153-.537-.531-.963-1.935-.961h-.482l.327-.358a4.25 4.25 0 0 1 .286-.284zm2.109 10.652h-3.736a5.071 5.071 0 0 0 1.378 2.389 5.005 5.005 0 0 0 2.358 1.296V13.46zm6.031 0H60.27l.019 3.637a5.074 5.074 0 0 0 3.547-3.637zm-9.994-2.523v.001h3.794l-.019-3.874h-.001l.001.25v-.021a5.067 5.067 0 0 0-3.55 3.644h-.225zm6.306-3.681v.737l.046 2.945h3.644a5.057 5.057 0 0 0-1.38-2.397 5.006 5.006 0 0 0-2.31-1.285z"/></g></svg>