<svg viewBox="0 0 100 59" xmlns="http://www.w3.org/2000/svg" fill-rule="evenodd" clip-rule="evenodd" stroke-linejoin="round" stroke-miterlimit="1.414"><g fill="#8393a7"><path d="M17.483 38.14l5.198-3.699c.134.144.273.283.417.418l-2.333 3.278a19.4 19.4 0 0 1-3.282.003zm8.929-1.382l-.071.029.021-.044.05.015zm-21.317-4.67l15.549-1.48c.044.191.095.381.152.57l-10.583 4.836a19.207 19.207 0 0 1-5.118-3.926zM.135 16.826l20.661 9.443a8.537 8.537 0 0 0-.152.57L.916 24.961a19.247 19.247 0 0 1-.781-8.135zM9.056 2.857l14.042 19.731a8.2 8.2 0 0 0-.417.417L2.939 8.955l-.109.143a19.237 19.237 0 0 1 6.226-6.241zm29.087 14.66a19.378 19.378 0 0 1-.004 3.22l-3.188 2.268a8.2 8.2 0 0 0-.417-.417l3.609-5.071zM16.955.12C17.66.041 18.377 0 19.104 0c2.081 0 4.085.334 5.962.95l1.866 19.601a7.978 7.978 0 0 0-.57.153L16.955.12zm15.21 5.047a19.161 19.161 0 0 1 3.876 5.097l-4.771 10.44a7.978 7.978 0 0 0-.57-.153l1.465-15.384z"/><text x="22.879" y="50.329" font-family="'Cinzel-Bold','Cinzel'" font-weight="700" font-size="34.215">SM<tspan x="74.955" y="50.329">C</tspan></text><text x="24.174" y="58.41" font-family="'Cinzel-Regular','Cinzel'" font-size="7.166">Seoul Maria Cente<tspan x="95.4" y="58.41">r</tspan></text><path d="M55.706 2.809c.55-.49 1.178-.738 1.898-.601l.262.076-.052-.11c-.254-.707-.004-1.421.982-2.093L58.914 0l.119.081c1.001.682 1.177 1.403.892 2.103l-.049.096.247-.072c.848-.162 1.568.211 2.184.885l.327.358-.482-.001c-1.402-.001-1.78.414-1.934.954l-.107.555.009.572a6.66 6.66 0 0 1 3.509 1.802 6.751 6.751 0 0 1 1.929 3.607l.002.011h-.002v.001l.683-.012.545-.106c.203-.059.391-.151.544-.321.048-.06.094-.124.138-.189.169-.292.273-.739.272-1.442v-.486l.354.33c.669.621 1.039 1.347.878 2.202l-.071.249.095-.05c.694-.287 1.409-.11 2.086.9l.08.119-.08.12c-.666.994-1.375 1.246-2.076.99l-.109-.053.075.265c.161.855-.209 1.581-.878 2.202l-.354.33v-.487a4.571 4.571 0 0 0-.071-.878c-.134-.401-.334-.801-.906-1.078l-.521-.102h-.684v.008h-.002a6.741 6.741 0 0 1-1.769 3.438 6.659 6.659 0 0 1-3.479 1.925l.003 9.877.106.549c.153.537.531.963 1.935.961h.483l-.327.358a4.534 4.534 0 0 1-.25.25c-.559.513-1.198.775-1.934.635l-.248-.072.05.095c.285.701.109 1.421-.893 2.104l-.118.08-.118-.08c-.986-.672-1.237-1.387-.983-2.093l.053-.111-.263.077c-.848.161-1.568-.212-2.184-.885l-.327-.358h.483c1.402.002 1.779-.414 1.933-.953l.107-.552v-9.844a6.658 6.658 0 0 1-3.519-1.803 6.743 6.743 0 0 1-1.929-3.609l-.682.003-.472.092c-.679.321-.845.81-.986 1.277a5.114 5.114 0 0 0-.041.689l.001.487-.355-.33c-.669-.621-1.038-1.347-.878-2.202l.076-.265-.11.053c-.701.256-1.409.004-2.076-.99l-.08-.12.08-.119c.677-1.01 1.392-1.187 2.086-.9l.095.05-.071-.249c-.16-.855.209-1.581.878-2.202l.355-.33-.001.486c0 .547.061.94.167 1.224.111.196.237.376.38.536.12.09.255.148.399.19l.552.108h.813v-.001h-.13a6.752 6.752 0 0 1 1.771-3.447 6.662 6.662 0 0 1 3.479-1.925l.001.14h.001l-.004-.746-.105-.549c-.154-.537-.531-.963-1.936-.962l-.482.001.327-.358c.093-.102.188-.197.286-.284zm2.11 10.654h-3.737a5.068 5.068 0 0 0 3.737 3.685v-3.685zm6.031 0h-3.566l.018 3.637a5.008 5.008 0 0 0 2.289-1.368 5.074 5.074 0 0 0 1.259-2.269zm-9.995-2.524l-.001.001h3.795l-.019-3.875h-.001l.001.25v-.021a5.07 5.07 0 0 0-3.55 3.645h-.225zm6.307-3.682v.737l.046 2.946h3.644a5.065 5.065 0 0 0-3.69-3.683z"/></g></svg>