<?xml version="1.0" encoding="UTF-8" standalone="no"?><!DOCTYPE svg PUBLIC "-//W3C//DTD SVG 1.1//EN" "http://www.w3.org/Graphics/SVG/1.1/DTD/svg11.dtd"><svg width="100%" height="100%" viewBox="0 0 100 59" version="1.1" xmlns="http://www.w3.org/2000/svg" xmlns:xlink="http://www.w3.org/1999/xlink" xml:space="preserve" xmlns:serif="http://www.serif.com/" style="fill-rule:evenodd;clip-rule:evenodd;stroke-linejoin:round;stroke-miterlimit:1.41421;"><g><path d="M17.483,38.14l5.198,-3.699c0.134,0.144 0.273,0.283 0.417,0.418l-2.333,3.278c-0.547,0.047 -1.101,0.071 -1.661,0.071c-0.546,0 -1.086,-0.023 -1.621,-0.068Zm8.929,-1.382l-0.071,0.029l0.021,-0.044l0.05,0.015Zm-21.317,-4.67l15.549,-1.48c0.044,0.191 0.095,0.381 0.152,0.57l-10.583,4.836c-1.923,-1.014 -3.652,-2.346 -5.118,-3.926Zm-4.96,-15.262l20.661,9.443c-0.057,0.188 -0.108,0.378 -0.152,0.57l-19.728,-1.878c-0.595,-1.846 -0.916,-3.814 -0.916,-5.857c0,-0.771 0.046,-1.531 0.135,-2.278Zm8.921,-13.969l14.042,19.731c-0.144,0.134 -0.283,0.273 -0.417,0.417l-19.742,-14.05c-0.036,0.048 -0.073,0.096 -0.109,0.143c1.562,-2.532 3.698,-4.673 6.226,-6.241Zm29.087,14.66c0.043,0.523 0.065,1.053 0.065,1.587c0,0.55 -0.023,1.094 -0.069,1.633l-3.188,2.268c-0.134,-0.144 -0.273,-0.283 -0.417,-0.417l3.609,-5.071Zm-21.188,-17.397c0.705,-0.079 1.422,-0.12 2.149,-0.12c2.081,0 4.085,0.334 5.962,0.95l1.866,19.601c-0.192,0.044 -0.382,0.095 -0.57,0.153l-9.407,-20.584Zm15.21,5.047c1.561,1.463 2.876,3.185 3.876,5.097l-4.771,10.44c-0.188,-0.058 -0.378,-0.109 -0.57,-0.153l1.465,-15.384Z" style="fill:#33a7d5;"/><text x="22.879px" y="50.329px" style="font-family:'Cinzel-Bold', 'Cinzel';font-weight:700;font-size:34.215px;fill:#0081d5;">SM<tspan x="74.955px " y="50.329px ">C</tspan></text><text x="24.174px" y="58.41px" style="font-family:'Cinzel-Regular', 'Cinzel';font-size:7.166px;fill:#33a7d5;">Seoul Maria Cente<tspan x="95.4px " y="58.41px ">r</tspan></text><path d="M55.706,2.809c0.55,-0.49 1.178,-0.738 1.898,-0.601l0.262,0.076l-0.052,-0.11c-0.254,-0.707 -0.004,-1.421 0.982,-2.093l0.118,-0.081l0.119,0.081c1.001,0.682 1.177,1.403 0.892,2.103l-0.049,0.096l0.247,-0.072c0.848,-0.162 1.568,0.211 2.184,0.885l0.327,0.358l-0.482,-0.001c-1.402,-0.001 -1.78,0.414 -1.934,0.954l-0.107,0.555l0.009,0.572c1.279,0.225 2.507,0.824 3.509,1.802c1.037,1.011 1.681,2.278 1.929,3.607l0.002,0.011l-0.002,0l0,0.001l0.683,-0.012l0.545,-0.106c0.203,-0.059 0.391,-0.151 0.544,-0.321c0.048,-0.06 0.094,-0.124 0.138,-0.189c0.169,-0.292 0.273,-0.739 0.272,-1.442l0,-0.486l0.354,0.33c0.669,0.621 1.039,1.347 0.878,2.202l-0.071,0.249l0.095,-0.05c0.694,-0.287 1.409,-0.11 2.086,0.9l0.08,0.119l-0.08,0.12c-0.666,0.994 -1.375,1.246 -2.076,0.99l-0.109,-0.053l0.075,0.265c0.161,0.855 -0.209,1.581 -0.878,2.202l-0.354,0.33l0,-0.487c0.001,-0.353 -0.025,-0.641 -0.071,-0.878c-0.134,-0.401 -0.334,-0.801 -0.906,-1.078l-0.521,-0.102l-0.684,0l0,0.008l-0.002,0c-0.235,1.254 -0.824,2.454 -1.769,3.438c-0.978,1.02 -2.197,1.662 -3.479,1.925l0.003,9.877l0.106,0.549c0.153,0.537 0.531,0.963 1.935,0.961l0.483,0l-0.327,0.358c-0.082,0.088 -0.165,0.172 -0.25,0.25l0,0l0,0c-0.559,0.513 -1.198,0.775 -1.934,0.635l-0.248,-0.072l0.05,0.095c0.285,0.701 0.109,1.421 -0.893,2.104l-0.118,0.08l-0.118,-0.08c-0.986,-0.672 -1.237,-1.387 -0.983,-2.093l0.053,-0.111l-0.263,0.077c-0.848,0.161 -1.568,-0.212 -2.184,-0.885l-0.327,-0.358l0.483,0c1.402,0.002 1.779,-0.414 1.933,-0.953l0.107,-0.552l0,-9.844c-1.283,-0.223 -2.514,-0.823 -3.519,-1.803c-1.038,-1.012 -1.682,-2.279 -1.929,-3.609l-0.682,0.003l-0.472,0.092c-0.679,0.321 -0.845,0.81 -0.986,1.277c-0.027,0.197 -0.041,0.425 -0.041,0.689l0.001,0.487l-0.355,-0.33c-0.669,-0.621 -1.038,-1.347 -0.878,-2.202l0.076,-0.265l-0.11,0.053c-0.701,0.256 -1.409,0.004 -2.076,-0.99l-0.08,-0.12l0.08,-0.119c0.677,-1.01 1.392,-1.187 2.086,-0.9l0.095,0.05l-0.071,-0.249c-0.16,-0.855 0.209,-1.581 0.878,-2.202l0.355,-0.33l-0.001,0.486c0,0.547 0.061,0.94 0.167,1.224c0.111,0.196 0.237,0.376 0.38,0.536c0.12,0.09 0.255,0.148 0.399,0.19l0.552,0.108l0.813,0l0,-0.001l-0.13,0c0.234,-1.256 0.824,-2.46 1.771,-3.447c0.977,-1.019 2.197,-1.662 3.479,-1.925l0.001,0.14l0.001,0l-0.004,-0.746l-0.105,-0.549c-0.154,-0.537 -0.531,-0.963 -1.936,-0.962l-0.482,0.001l0.327,-0.358c0.093,-0.102 0.188,-0.197 0.286,-0.284l0,0l0,0Zm3.475,30.278c-0.032,0.012 -0.064,0.021 -0.097,0.028l0.03,0.023l0.067,-0.051Zm0.642,-1.134c-0.015,0.257 -0.081,0.493 -0.181,0.684c0.149,-0.219 0.204,-0.446 0.181,-0.684Zm-3.575,-1.363l-0.002,-0.001l-0.002,-0.002l-0.004,-0.003l0.009,0.007c-0.015,-0.012 -0.018,-0.015 0.023,0.019l0.001,0l-0.01,-0.008l-0.01,-0.008l-0.004,-0.003c0,0 -0.007,-0.005 -0.007,-0.005l0,-0.001l-0.002,-0.001c-0.004,-0.003 0,0 0.006,0.005l0.026,0.021l0.03,0.024c0.016,0.012 0.032,0.024 0.048,0.036c0.031,-0.025 0.061,-0.048 0.093,-0.07l-0.141,0.008l-0.007,0l0,0l0.007,0l-0.022,-0.016c0.056,0.062 0.024,0.041 -0.007,0.018l-0.001,0l-0.024,-0.02Zm5.458,0.01c0.028,0.013 0.056,0.026 0.085,0.039l0.035,-0.032l-0.12,-0.007Zm-5.466,-0.016l0.009,0.007c0,0 0.004,0.003 0.004,0.003l0.01,0.008l0.01,0.008l-0.002,-0.002l-0.01,-0.007l-0.003,-0.003l-0.007,-0.006l-0.003,-0.002l-0.005,-0.004c0,0 -0.003,-0.002 -0.003,-0.002l-0.001,-0.001l0.001,0.001Zm1.576,-17.121l-3.737,0c0.223,0.88 0.683,1.711 1.378,2.389c0.68,0.663 1.499,1.095 2.359,1.296l0,-3.685Zm6.031,0l-3.566,0l0.018,3.637c0.844,-0.233 1.638,-0.689 2.289,-1.368c0.63,-0.657 1.049,-1.442 1.259,-2.269Zm-14.499,0.555c0.028,0.275 0.127,0.532 0.287,0.778l0.161,0.187l0,-0.002c-0.185,-0.339 -0.333,-0.659 -0.448,-0.963Zm19.215,0.115c-0.097,0.244 -0.216,0.498 -0.358,0.764l0.087,-0.101c0.138,-0.211 0.23,-0.431 0.271,-0.663Zm0.353,-1.339c0.431,0.178 0.778,0.202 1.099,0.011c-0.149,0.035 -0.312,0.054 -0.483,0.054c-0.222,0 -0.431,-0.032 -0.613,-0.089l-0.003,0.024Zm-21.031,-0.038c0.263,0.15 0.536,0.163 0.859,0.094c-0.066,0.006 -0.133,0.009 -0.201,0.009c-0.24,0 -0.465,-0.038 -0.658,-0.103Zm0.617,-1.37c-0.192,-0.029 -0.364,-0.006 -0.53,0.076c0.16,-0.045 0.34,-0.072 0.53,-0.076Zm3.642,-0.02c0.079,0.007 0.16,0.01 0.243,0.009l0,-0.009l-0.243,0Zm1.708,-0.427l-0.001,0.001l3.795,0l-0.019,-3.875l-0.001,0l0,0l0.001,0.25l0,-0.021c-0.843,0.232 -1.637,0.689 -2.289,1.368c-0.632,0.659 -1.052,1.447 -1.261,2.277l-0.225,0Zm6.307,-3.682l0,0.737l0.046,2.946l3.644,0c-0.222,-0.884 -0.683,-1.718 -1.38,-2.398c-0.668,-0.651 -1.468,-1.078 -2.31,-1.285Zm-10.467,2.277l-0.057,0.066c-0.178,0.274 -0.281,0.562 -0.293,0.874c0.106,-0.315 0.228,-0.625 0.35,-0.94Zm18.596,0.061c0.1,0.258 0.2,0.514 0.29,0.772c-0.029,-0.271 -0.128,-0.525 -0.286,-0.767l-0.004,-0.005Zm-12.121,-6.597l-0.066,0.058l0.195,0.012l0.01,0.001c-0.046,-0.024 -0.092,-0.048 -0.139,-0.071Zm5.423,0.027c-0.012,0.012 -0.024,0.023 -0.036,0.035l0.071,-0.004l-0.035,-0.031Zm-0.432,-0.293c-0.286,-0.135 -0.574,-0.181 -0.899,-0.113l0.899,0.113Zm-3.873,-0.134c-0.183,-0.008 -0.359,0.016 -0.528,0.068c0.169,-0.022 0.348,-0.045 0.528,-0.068Zm2.033,-1.785c0.166,0.236 0.272,0.596 0.272,0.999c0,0.078 -0.004,0.154 -0.012,0.227c0.119,-0.488 0.077,-0.93 -0.26,-1.226Zm-0.407,-0.286l0.008,0.002l-0.005,-0.004l-0.003,0.002Z" style="fill:#0081d5;stroke:#0081d5;stroke-width:0.42px;"/></g></svg>